<?xml version="1.0" encoding="UTF-8" standalone="no"?>
<!DOCTYPE svg PUBLIC "-//W3C//DTD SVG 1.1//EN"
 "http://www.w3.org/Graphics/SVG/1.1/DTD/svg11.dtd">
<!-- Generated by graphviz version 2.40.1 (20161225.0304)
 -->
<!-- Title: snakemake_dag Pages: 1 -->
<svg width="420pt" height="44pt"
 viewBox="0.00 0.00 420.00 44.00" xmlns="http://www.w3.org/2000/svg" xmlns:xlink="http://www.w3.org/1999/xlink">
<g id="graph0" class="graph" transform="scale(1 1) rotate(0) translate(4 40)">
<title>snakemake_dag</title>
<polygon fill="#ffffff" stroke="transparent" points="-4,4 -4,-40 416,-40 416,4 -4,4"/>
<!-- 0 -->
<g id="node1" class="node">
<title>0</title>
<path fill="none" stroke="#c6d856" stroke-width="2" stroke-dasharray="5,2" d="M185,-36C185,-36 12,-36 12,-36 6,-36 0,-30 0,-24 0,-24 0,-12 0,-12 0,-6 6,0 12,0 12,0 185,0 185,0 191,0 197,-6 197,-12 197,-12 197,-24 197,-24 197,-30 191,-36 185,-36"/>
<text text-anchor="middle" x="98.5" y="-21" font-family="sans" font-size="10.00" fill="#000000">control_count</text>
<text text-anchor="middle" x="98.5" y="-10" font-family="sans" font-size="10.00" fill="#000000">rawbcl: 190201_KW6621_10x_rawbcl</text>
</g>
<!-- 1 -->
<g id="node2" class="node">
<title>1</title>
<path fill="none" stroke="#c6d856" stroke-width="2" stroke-dasharray="5,2" d="M400,-36C400,-36 227,-36 227,-36 221,-36 215,-30 215,-24 215,-24 215,-12 215,-12 215,-6 221,0 227,0 227,0 400,0 400,0 406,0 412,-6 412,-12 412,-12 412,-24 412,-24 412,-30 406,-36 400,-36"/>
<text text-anchor="middle" x="313.5" y="-21" font-family="sans" font-size="10.00" fill="#000000">control_count</text>
<text text-anchor="middle" x="313.5" y="-10" font-family="sans" font-size="10.00" fill="#000000">rawbcl: 190201_KW6622_10x_rawbcl</text>
</g>
</g>
</svg>
